<?xml version="1.0" encoding="utf-8"?>
<!-- Generator: Adobe Illustrator 25.2.1, SVG Export Plug-In . SVG Version: 6.00 Build 0)  -->
<svg version="1.2" baseProfile="tiny" id="Layer_1" xmlns="http://www.w3.org/2000/svg" xmlns:xlink="http://www.w3.org/1999/xlink"
	 x="0px" y="0px" viewBox="0 0 219 62" overflow="visible" xml:space="preserve">
<g>
	<polygon fill="#68E08F" points="11.569,58.604 11.57,49.024 37.448,49.024 37.448,23.146 47.028,23.146 47.028,58.605 	"/>
</g>
<g>
	<polygon fill="#68E08F" points="2.001,49.024 11.582,49.024 11.582,23.146 37.46,23.146 37.46,13.566 2.001,13.565 	"/>
</g>
<rect x="47.031" y="3.994" fill="#F76537" width="9.571" height="9.571"/>
<g>
	<path d="M64.257,51.157l20.036-27.16H64.257v-7.951h31.867v7.251L76.087,50.521h20.482v7.951H64.257V51.157z"/>
	<path d="M100.829,18.4c0-2.672,2.226-4.835,4.835-4.835c2.671,0,4.834,2.163,4.834,4.835c0,2.671-2.163,4.834-4.834,4.834
		C103.055,23.234,100.829,21.071,100.829,18.4z M101.656,27.75h8.078v30.722h-8.078V27.75z"/>
	<path d="M117.938,34.81h-5.088v-7.06h5.088v-1.654c0-6.679,4.325-10.686,10.369-10.686c2.29,0,4.389,0.509,5.851,1.272
		l-1.654,5.725c-0.7-0.446-1.654-0.636-2.608-0.636c-2.29,0-3.817,1.526-3.817,4.452v1.527h6.234v7.06h-6.234v23.662h-8.142V34.81z"
		/>
	<path d="M149.296,26.987c9.16,0,15.393,6.87,15.393,16.92v1.781h-22.834c0.508,3.88,3.625,7.124,8.841,7.124
		c2.862,0,6.234-1.145,8.205-3.053l3.562,5.216c-3.053,2.799-7.887,4.261-12.658,4.261c-9.35,0-16.411-6.297-16.411-16.156
		C133.394,34.174,139.945,26.987,149.296,26.987z M141.727,40.217h15.138c-0.19-2.926-2.226-6.805-7.569-6.805
		C144.271,33.411,142.108,37.164,141.727,40.217z"/>
	<path d="M168.949,27.75h8.078v4.198c2.162-2.735,5.979-4.898,9.795-4.898v7.888c-0.573-0.128-1.336-0.255-2.226-0.255
		c-2.672,0-6.234,1.527-7.569,3.498v20.291h-8.078V27.75z"/>
	<path d="M208.703,55.292c-2.099,2.481-5.725,3.943-9.732,3.943c-4.898,0-10.687-3.307-10.687-10.177
		c0-7.188,5.789-9.796,10.687-9.796c4.071,0,7.696,1.272,9.732,3.753v-4.261c0-3.117-2.672-5.153-6.743-5.153
		c-3.307,0-6.361,1.209-8.968,3.626l-3.053-5.406c3.753-3.308,8.587-4.835,13.421-4.835c6.997,0,13.421,2.799,13.421,11.64v19.846
		h-8.078V55.292z M208.703,47.278c-1.336-1.781-3.88-2.672-6.488-2.672c-3.18,0-5.789,1.654-5.789,4.643
		c0,2.862,2.608,4.517,5.789,4.517c2.608,0,5.152-0.891,6.488-2.672V47.278z"/>
</g>
<g>
</g>
<g>
</g>
<g>
</g>
<g>
</g>
<g>
</g>
<g>
</g>
<g>
</g>
<g>
</g>
<g>
</g>
<g>
</g>
<g>
</g>
<g>
</g>
<g>
</g>
<g>
</g>
<g>
</g>
</svg>
